Coordinates
version=1
nRows=27
nColumns=34
inDegrees=no

Units are S.I. units (second, meters, Newtons, ...)
If the header above contains a line with 'inDegrees', this indicates whether rotational values are in degrees (yes) or radians (no).

endheader
time	pelvis_tilt	pelvis_list	pelvis_rotation	pelvis_tx	pelvis_ty	pelvis_tz	hip_flexion_r	hip_adduction_r	hip_rotation_r	knee_angle_r	ankle_angle_r	subtalar_angle_r	mtp_angle_r	hip_flexion_l	hip_adduction_l	hip_rotation_l	knee_angle_l	ankle_angle_l	subtalar_angle_l	mtp_angle_l	lumbar_extension	lumbar_bending	lumbar_rotation	arm_flex_r	arm_add_r	arm_rot_r	elbow_flex_r	pro_sup_r	arm_flex_l	arm_add_l	arm_rot_l	elbow_flex_l	pro_sup_l
2.07	0.00179432	0.0524894	-0.00206896	-0.186584	1.232	-0.586009	0.156644	-0.145607	-0.341259	0.372162	-0.5872	-0.0197011	-0.143969	0.0738124	-0.0120184	-0.232254	0.268518	-0.526359	-0.0562443	-0.144004	-0.277133	-0.00899361	0.0120264	-0.212835	-0.654723	0.238391	0.861011	1.05591	-0.0406361	-0.568353	0.270919	1.5985	1.69635
2.08	0.0105909	0.0503089	-0.00994635	-0.187277	1.24035	-0.585007	0.138295	-0.136472	-0.325344	0.341501	-0.56489	-0.0223721	-0.14397	0.051709	-0.0107885	-0.234956	0.229067	-0.509426	-0.0865389	-0.144005	-0.286347	-0.00672402	0.017015	-0.209817	-0.622075	0.2382	0.802105	1.05612	-0.0644136	-0.50954	0.236109	1.50778	1.70045
2.09	0.0158985	0.0480289	-0.0169689	-0.187824	1.24732	-0.583888	0.120604	-0.126127	-0.31233	0.303997	-0.53962	-0.0310484	-0.14397	0.0329068	-0.010444	-0.245926	0.189324	-0.48914	-0.118022	-0.144005	-0.29013	-0.0051752	0.0221851	-0.208899	-0.590241	0.238983	0.748426	1.06425	-0.0810981	-0.453683	0.203811	1.41513	1.70455
2.1	0.0181321	0.0458664	-0.0229027	-0.188316	1.25294	-0.582654	0.104868	-0.115541	-0.30296	0.264118	-0.512166	-0.043982	-0.143971	0.0187566	-0.0112245	-0.263607	0.15361	-0.465	-0.146546	-0.144005	-0.289462	-0.00448619	0.0269751	-0.209205	-0.559249	0.240953	0.699933	1.07727	-0.0926325	-0.401769	0.172213	1.32254	1.70785
2.11	0.0179592	0.0440841	-0.0276253	-0.188848	1.25726	-0.581329	0.0920291	-0.105721	-0.297917	0.225912	-0.483849	-0.0586808	-0.143971	0.00991525	-0.0131303	-0.285416	0.125139	-0.437108	-0.169048	-0.144006	-0.285623	-0.00479883	0.030948	-0.210159	-0.529149	0.24358	0.656807	1.09196	-0.100462	-0.354551	0.14053	1.23208	1.70923
2.12	0.0161964	0.0429266	-0.0311491	-0.189496	1.26034	-0.579956	0.0825873	-0.0975432	-0.297499	0.192583	-0.456299	-0.0724215	-0.143971	0.00633831	-0.0159933	-0.308174	0.105818	-0.406307	-0.183884	-0.144006	-0.279985	-0.00620548	0.0338321	-0.211412	-0.500042	0.245964	0.619348	1.10533	-0.105622	-0.312601	0.108929	1.1458	1.7072
2.13	0.0136753	0.0425395	-0.0336156	-0.190314	1.26229	-0.578576	0.0765744	-0.091611	-0.301353	0.166259	-0.431202	-0.0828216	-0.143972	0.00738615	-0.0195794	-0.32872	0.0962923	-0.37412	-0.190762	-0.144006	-0.273846	-0.00870424	0.0355251	-0.212759	-0.472089	0.247229	0.587832	1.11522	-0.108841	-0.276316	0.0782927	1.06557	1.70018
2.14	0.0111588	0.0429354	-0.035262	-0.191322	1.26318	-0.577225	0.0736085	-0.0881809	-0.308405	0.147955	-0.410012	-0.0882555	-0.143972	0.0120313	-0.0236917	-0.344523	0.0961853	-0.342463	-0.190391	-0.144007	-0.268273	-0.0121628	0.0360734	-0.214078	-0.445514	0.246846	0.562392	1.12049	-0.110655	-0.24591	0.0498901	0.992886	1.68676
2.15	0.00926805	0.043988	-0.036374	-0.192511	1.26308	-0.575918	0.0730186	-0.0871575	-0.317004	0.137706	-0.393686	-0.0880442	-0.143973	0.0190976	-0.0282391	-0.354121	0.104427	-0.313217	-0.184013	-0.144007	-0.263993	-0.0163163	0.0356395	-0.215284	-0.420577	0.244776	0.542952	1.12095	-0.111493	-0.221394	0.0250334	0.9288	1.66602
2.16	0.0084193	0.045458	-0.0372374	-0.193846	1.26203	-0.574653	0.0740084	-0.0881523	-0.325215	0.134807	-0.382479	-0.082448	-0.143973	0.027477	-0.0332514	-0.357262	0.119585	-0.287774	-0.173015	-0.144007	-0.261334	-0.0208011	0.0344589	-0.21632	-0.397541	0.241409	0.529211	1.1172	-0.111728	-0.202556	0.00477679	0.873771	1.63791
2.17	0.00878424	0.047035	-0.0380922	-0.195273	1.26004	-0.573416	0.0758274	-0.090591	-0.331196	0.138105	-0.375876	-0.0724899	-0.143973	0.0362947	-0.0388542	-0.354787	0.140134	-0.266686	-0.158617	-0.144008	-0.260213	-0.0252151	0.0327901	-0.217163	-0.376608	0.237336	0.520661	1.11037	-0.111712	-0.188974	-0.0102985	0.827647	1.60369
2.18	0.0102593	0.0483873	-0.0390997	-0.196726	1.25711	-0.572193	0.0778959	-0.0938435	-0.333545	0.14627	-0.372674	-0.0596776	-0.143974	0.044989	-0.0452107	-0.348296	0.164648	-0.249526	-0.141723	-0.144008	-0.260197	-0.0291901	0.0308615	-0.217824	-0.357878	0.233066	0.516645	1.10195	-0.111773	-0.180049	-0.0201801	0.789705	1.56614
2.19	0.012529	0.0492843	-0.0403268	-0.198142	1.25323	-0.570972	0.0798688	-0.0973328	-0.331554	0.158002	-0.371214	-0.0456845	-0.143974	0.0533096	-0.0524643	-0.339701	0.191878	-0.23504	-0.122961	-0.144008	-0.260605	-0.0324267	0.0288318	-0.21836	-0.341316	0.228783	0.516424	1.09361	-0.112207	-0.175061	-0.0253861	0.758799	1.52949
2.2	0.0151644	0.0496149	-0.0417441	-0.199462	1.24834	-0.569755	0.0816256	-0.100634	-0.325315	0.172157	-0.369708	-0.0320218	-0.143975	0.0612468	-0.0606698	-0.33079	0.220759	-0.221516	-0.102816	-0.144009	-0.260638	-0.0347488	0.0267671	-0.218865	-0.326749	0.224226	0.519262	1.08695	-0.113264	-0.173256	-0.0268047	0.733595	1.49864
2.21	0.017707	0.049391	-0.0432489	-0.200641	1.24242	-0.568549	0.0831994	-0.103534	-0.315682	0.187786	-0.366554	-0.0197369	-0.143975	0.0689192	-0.0697497	-0.322914	0.250385	-0.207257	-0.0817745	-0.144009	-0.259544	-0.0361276	0.0246442	-0.219456	-0.313895	0.218713	0.524522	1.08326	-0.115131	-0.173932	-0.0254495	0.712877	1.47789
2.22	0.019759	0.0487336	-0.0447029	-0.201653	1.23542	-0.56737	0.0846776	-0.106031	-0.304063	0.204112	-0.360621	-0.00925297	-0.143975	0.0764606	-0.0794854	-0.316816	0.279963	-0.191009	-0.0604466	-0.144009	-0.256749	-0.0366721	0.0223797	-0.22026	-0.302408	0.211283	0.531732	1.08327	-0.117907	-0.176504	-0.022247	0.695749	1.46996
2.23	0.0210548	0.0478383	-0.0459719	-0.202496	1.22735	-0.56623	0.0861119	-0.108291	-0.292129	0.220472	-0.351431	-0.000372295	-0.143976	0.0839366	-0.0895424	-0.31262	0.308792	-0.172214	-0.0396073	-0.14401	-0.251955	-0.0365968	0.0198723	-0.221381	-0.291941	0.200912	0.540627	1.08707	-0.12159	-0.18054	-0.0178945	0.681728	1.47558
2.24	0.0214992	0.04693	-0.0469564	-0.203184	1.2182	-0.56514	0.0874649	-0.110582	-0.281491	0.236268	-0.339247	0.00755139	-0.143976	0.0913063	-0.0995221	-0.309938	0.336269	-0.151039	-0.0201603	-0.14401	-0.245182	-0.036173	0.0170417	-0.222874	-0.282203	0.186767	0.551137	1.09419	-0.12606	-0.185761	-0.012814	0.670723	1.49343
2.25	0.0211687	0.0462124	-0.0476072	-0.203756	1.20798	-0.564109	0.0886047	-0.113182	-0.273423	0.250949	-0.325077	0.0153073	-0.143977	0.0984339	-0.109034	-0.308059	0.361931	-0.128187	-0.00301216	-0.14401	-0.236761	-0.0356738	0.0138535	-0.224708	-0.273005	0.168397	0.563348	1.10373	-0.131076	-0.192008	-0.00720275	0.662907	1.52083
2.26	0.0202906	0.0458312	-0.0479273	-0.204262	1.19673	-0.563138	0.0893394	-0.116318	-0.268691	0.264041	-0.310593	0.0234919	-0.143977	0.105127	-0.117761	-0.306136	0.385499	-0.104645	0.0110474	-0.14401	-0.227279	-0.0353265	0.0103236	-0.226735	-0.264295	0.145892	0.577433	1.11451	-0.136293	-0.199198	-0.00111222	0.658626	1.55403
2.27	0.0192442	0.0458648	-0.0479679	-0.204772	1.18448	-0.562226	0.0894881	-0.120112	-0.267483	0.275209	-0.297952	0.0322251	-0.143977	0.111202	-0.125514	-0.303395	0.406912	-0.0814644	0.021485	-0.144011	-0.217493	-0.035271	0.00650807	-0.228666	-0.256153	0.119907	0.593564	1.12528	-0.141271	-0.207273	0.00544766	0.658286	1.58878
2.28	0.0184393	0.0462984	-0.0478104	-0.205361	1.17128	-0.561372	0.0889487	-0.124577	-0.269441	0.284349	-0.289497	0.041006	-0.143978	0.11654	-0.132268	-0.299305	0.426362	-0.0596433	0.028132	-0.144011	-0.20826	-0.0355578	0.00248623	-0.230055	-0.248773	0.091585	0.611825	1.13505	-0.145518	-0.216159	0.0124022	0.662199	1.62137
2.29	0.0182317	0.047042	-0.0475657	-0.206111	1.15715	-0.560569	0.0877765	-0.129634	-0.273745	0.291686	-0.287314	0.0487508	-0.143978	0.121151	-0.138151	-0.293679	0.444277	-0.0401176	0.0311874	-0.144011	-0.20043	-0.0361515	-0.00168055	-0.230298	-0.242411	0.062415	0.632137	1.14325	-0.148528	-0.225745	0.0195584	0.670525	1.64917
2.3	0.0188771	0.0479654	-0.0473524	-0.207111	1.14212	-0.559812	0.0862649	-0.135148	-0.279224	0.297855	-0.292673	0.0540273	-0.143979	0.125251	-0.143411	-0.286666	0.461286	-0.0237988	0.031145	-0.144012	-0.194722	-0.0369472	-0.00597843	-0.228654	-0.237325	0.0340604	0.65424	1.14977	-0.149833	-0.235878	0.026593	0.68327	1.67078
2.31	0.0204636	0.048923	-0.047281	-0.208442	1.1262	-0.559095	0.0849875	-0.140951	-0.284466	0.303919	-0.305436	0.0554465	-0.143979	0.129306	-0.148378	-0.278696	0.47817	-0.0115656	0.028685	-0.144012	-0.191617	-0.0377921	-0.0104526	-0.224289	-0.233713	0.00816744	0.677717	1.15478	-0.149041	-0.246371	0.033073	0.700322	1.68597
2.32	0.022862	0.0497635	-0.047449	-0.210176	1.10936	-0.558412	0.0847913	-0.14685	-0.28794	0.311342	-0.32356	0.0521152	-0.143979	0.13405	-0.153428	-0.270359	0.495813	-0.00414957	0.0245578	-0.144012	-0.19128	-0.0384987	-0.0151885	-0.216344	-0.23166	-0.0138199	0.70207	1.15872	-0.145862	-0.257027	0.0385072	0.721508	1.69541
2.33	0.0257077	0.0503272	-0.0479452	-0.212372	1.09157	-0.55775	0.0867426	-0.152592	-0.288125	0.321883	-0.342835	0.0439995	-0.14398	0.140462	-0.158967	-0.262266	0.515166	-0.00189754	0.0194772	-0.144013	-0.193541	-0.0388407	-0.0202661	-0.204013	-0.231104	-0.0308135	0.726813	1.16207	-0.140101	-0.267642	0.0424235	0.746642	1.7003
